<svg width="20" height="21" viewBox="0 0 20 21" fill="none" xmlns="http://www.w3.org/2000/svg">
<path d="M15.5441 13.1714C14.2637 13.1714 13.1329 13.8226 12.4597 14.8082L7.74506 12.1946C8.01786 11.6776 8.17406 11.0902 8.17406 10.4632C8.17406 9.8538 8.02446 9.284 7.76486 8.7758L12.3443 6.2182C13.0175 7.1884 14.1395 7.8264 15.4067 7.8264C17.4637 7.8264 19.1335 6.1544 19.1335 4.0996C19.1335 2.0448 17.4615 0.375 15.4067 0.375C13.3519 0.375 11.6799 2.047 11.6799 4.1018C11.6799 4.5242 11.7525 4.9268 11.8845 5.3074L7.16646 7.9244C6.48446 7.1962 5.52086 6.7386 4.44726 6.7386C2.39026 6.7386 0.720459 8.4106 0.720459 10.4654C0.720459 12.5224 2.39246 14.1922 4.44726 14.1922C5.50766 14.1922 6.46466 13.7434 7.14446 13.0306L12.0087 15.7234C11.8855 16.093 11.8151 16.4868 11.8151 16.896C11.8151 18.953 13.4871 20.6228 15.5419 20.6228C17.5967 20.6228 19.2687 18.9508 19.2687 16.896C19.2687 14.8412 17.6011 13.1714 15.5441 13.1714Z" fill="#C4C4C4"/>
</svg>
