<svg width="19" height="18" viewBox="0 0 19 18" fill="none" xmlns="http://www.w3.org/2000/svg">
<path d="M10.0871 14.7003C11.1366 14.132 12.1339 13.472 13.0673 12.7281C15.6294 10.6704 17.1038 8.34005 17.1 5.79405C17.0972 3.62425 15.4309 1.8981 13.4131 1.9C12.4479 1.9 11.5416 2.29615 10.8576 3.0001L9.49905 4.39375L8.13865 3.0039C7.80723 2.65902 7.40971 2.38445 6.96982 2.19658C6.52994 2.00871 6.05672 1.9114 5.5784 1.91045C3.56155 1.91235 1.8981 3.64515 1.9 5.814C1.90285 8.35715 3.38105 10.6809 5.9432 12.731C7.05011 13.6102 8.24603 14.3712 9.5114 15.0015C9.69285 14.9103 9.8857 14.8096 10.0871 14.6994V14.7003ZM9.4962 1.67485L9.68905 1.48485C10.6954 0.534509 12.0261 0.0035082 13.4102 4.17202e-06C16.4939 -0.00379583 18.9962 2.58875 19 5.79215C19.0095 13.1528 9.5133 17.1 9.5133 17.1C9.5133 17.1 0.00950244 13.1765 2.43857e-06 5.8178C-0.00284756 2.6144 2.4928 0.0133042 5.5765 0.00950417C6.96031 0.0106385 8.29179 0.538478 9.3005 1.4858L9.49525 1.67485H9.4962Z" fill="#C4C4C4"/>
</svg>
