<svg width="19" height="19" viewBox="0 0 19 19" fill="none" xmlns="http://www.w3.org/2000/svg">
<path d="M13.3 5.7C13.3 4.69218 12.8996 3.72563 12.187 3.01299C11.4744 2.30036 10.5078 1.9 9.5 1.9C8.49218 1.9 7.52563 2.30036 6.81299 3.01299C6.10036 3.72563 5.7 4.69218 5.7 5.7C5.7 6.70782 6.10036 7.67437 6.81299 8.38701C7.52563 9.09964 8.49218 9.5 9.5 9.5C10.5078 9.5 11.4744 9.09964 12.187 8.38701C12.8996 7.67437 13.3 6.70782 13.3 5.7ZM15.2 5.7C15.2 7.21173 14.5995 8.66155 13.5305 9.73051C12.4616 10.7995 11.0117 11.4 9.5 11.4C7.98827 11.4 6.53845 10.7995 5.46949 9.73051C4.40053 8.66155 3.8 7.21173 3.8 5.7C3.8 4.18827 4.40053 2.73845 5.46949 1.66949C6.53845 0.600534 7.98827 0 9.5 0C11.0117 0 12.4616 0.600534 13.5305 1.66949C14.5995 2.73845 15.2 4.18827 15.2 5.7ZM9.5 14.25C6.5854 14.25 4.1135 15.4118 2.81675 17.1H16.1833C14.8865 15.4118 12.4146 14.25 9.5 14.25ZM19 19H0C0.52535 15.1943 4.57805 12.35 9.5 12.35C14.422 12.35 18.4746 15.1943 19 19Z" fill="#1B1B1C"/>
</svg>
