<svg width="14" height="14" viewBox="0 0 14 14" fill="none" xmlns="http://www.w3.org/2000/svg">
<path d="M7.12644 0C3.36004 0 0.307243 3.0544 0.307243 6.8192C0.307243 8.1072 0.665643 9.3136 1.28484 10.3424L0.0544434 14L3.83044 12.7904C4.80804 13.3296 5.92964 13.64 7.12644 13.64C10.8928 13.64 13.9456 10.5856 13.9456 6.8208C13.9456 3.056 10.8928 0 7.12644 0ZM10.4672 9.1824C10.3296 9.5728 9.78084 9.8976 9.34244 9.9904C9.04324 10.0544 8.65124 10.1056 7.33284 9.56C5.64644 8.8624 4.56164 7.1488 4.47844 7.0384C4.39684 6.9264 3.79684 6.1312 3.79684 5.3088C3.79684 4.4864 4.21604 4.0848 4.38404 3.9136C4.52164 3.7712 4.75204 3.7088 4.96964 3.7088C5.04164 3.7088 5.10404 3.712 5.16164 3.7152C5.32964 3.7216 5.41444 3.7328 5.52644 3.9984C5.66404 4.3312 6.00164 5.1536 6.04164 5.2384C6.08324 5.3232 6.12324 5.4368 6.06564 5.5488C6.01124 5.664 5.96484 5.7136 5.88004 5.8128C5.79524 5.9104 5.71524 5.984 5.63044 6.088C5.55204 6.1792 5.46564 6.2768 5.56324 6.4464C5.66084 6.6112 5.99844 7.1616 6.49444 7.6016C7.13444 8.1712 7.65444 8.3536 7.84004 8.432C7.97764 8.4896 8.14404 8.4752 8.24484 8.368C8.37284 8.2288 8.53124 8 8.69284 7.7744C8.80804 7.6128 8.95204 7.592 9.10404 7.6496C9.25924 7.7024 10.0784 8.1088 10.248 8.192C10.416 8.2768 10.528 8.3168 10.568 8.3872C10.6064 8.4576 10.6064 8.792 10.4672 9.1824Z" fill="#C9C7C7"/>
</svg>
