<svg width="14" height="14" viewBox="0 0 14 14" fill="none" xmlns="http://www.w3.org/2000/svg">
<path d="M7 0C3.1344 0 0 3.1344 0 7C0 10.8656 3.1344 14 7 14C10.8656 14 14 10.8656 14 7C14 3.1344 10.8656 0 7 0ZM9.1552 10.3296C9.1552 10.3296 8.9808 10.7664 8.4992 10.5568L6.7152 9.1888L5.6192 8.3312L5.624 8.2912C5.624 8.2912 8.824 5.4144 8.9552 5.2928L9.0432 5.144C9.0512 4.9952 8.8064 5.144 8.8064 5.144L4.5664 7.8368L2.8 7.2416C2.8 7.2416 2.528 7.1456 2.5024 6.936C2.4768 6.7264 2.808 6.6128 2.808 6.6128L9.8288 3.8592C9.8288 3.8592 10.4064 3.6064 10.4064 4.0256L9.1552 10.3296Z" fill="#C9C7C7"/>
</svg>
