<svg width="14" height="14" viewBox="0 0 14 14" fill="none" xmlns="http://www.w3.org/2000/svg">
<path d="M13.9599 1.97443C13.9231 1.75523 13.8479 1.53603 13.7343 1.30883C13.3791 0.595231 12.6671 0.100831 11.8687 0.0144305C11.6863 -0.00476946 2.28312 -0.00316951 2.10552 0.0176305C1.83512 0.0480305 1.52952 0.145631 1.26072 0.284831C0.630321 0.614431 0.161521 1.26243 0.0383215 1.97443C0.0111215 2.12483 0.00952148 2.32963 0.00952148 7.03363V11.9344L0.0447215 12.0864C0.260721 13.0608 0.948721 13.7488 1.92312 13.9648L2.07512 14H11.9247L12.0767 13.9648C13.0511 13.7488 13.7391 13.0608 13.9551 12.0864L13.9903 11.9344V7.03363C13.9871 2.32963 13.9871 2.12483 13.9599 1.97443ZM6.67192 2.53923C6.74232 2.47523 6.79192 2.46563 7.03512 2.47363C7.16312 2.47843 7.34872 2.49283 7.45112 2.50563C7.96632 2.56963 8.38232 2.69443 8.83832 2.91683C9.28792 3.13763 9.57432 3.34563 9.95512 3.72323C10.3119 4.08163 10.5087 4.35203 10.7183 4.77283C11.0095 5.36003 11.1759 6.05763 11.2047 6.82403C11.2159 7.08643 11.2079 7.14403 11.1471 7.21923C11.0335 7.36483 10.7839 7.34083 10.6975 7.17763C10.6703 7.12323 10.6623 7.07683 10.6543 6.86723C10.6399 6.54563 10.6175 6.33763 10.5727 6.08963C10.3967 5.11523 9.92952 4.33763 9.18392 3.77923C8.56312 3.31203 7.92152 3.08483 7.07992 3.03523C6.79512 3.01923 6.74552 3.00803 6.68152 2.95843C6.56312 2.86403 6.55672 2.64323 6.67192 2.53923ZM8.45592 4.46723C8.15512 4.28803 7.71032 4.15523 7.30552 4.12163C7.15832 4.11043 7.07832 4.08003 7.02232 4.01603C6.93752 3.91843 6.92792 3.78723 6.99992 3.67843C7.07832 3.55683 7.19672 3.53763 7.55512 3.59203C8.46392 3.72483 9.16632 4.14723 9.62872 4.83203C9.88792 5.21763 10.0495 5.67203 10.1039 6.15843C10.1231 6.33603 10.1231 6.66083 10.1023 6.71523C10.0831 6.76643 10.0207 6.83523 9.96632 6.86403C9.90872 6.89443 9.78392 6.89123 9.71512 6.85443C9.59992 6.79683 9.56472 6.70403 9.56472 6.45123C9.56472 6.06403 9.46392 5.65443 9.29112 5.33763C9.09432 4.97443 8.80632 4.67523 8.45592 4.46723ZM8.96152 6.46243C8.87352 6.54403 8.71032 6.54563 8.61112 6.47043C8.53912 6.41603 8.51672 6.36003 8.50072 6.20483C8.48152 6.00003 8.44472 5.85603 8.38392 5.72323C8.25272 5.44003 8.02072 5.29443 7.62872 5.24643C7.44472 5.22403 7.38872 5.20323 7.32952 5.13283C7.22072 5.00323 7.26232 4.79203 7.41272 4.71363C7.47032 4.68483 7.49432 4.68163 7.61912 4.68963C7.69752 4.69443 7.81272 4.70723 7.87352 4.72163C8.16792 4.78403 8.39512 4.89603 8.58712 5.07843C8.83512 5.31363 8.97112 5.59843 9.03192 6.00643C9.07352 6.27043 9.05592 6.37603 8.96152 6.46243ZM11.1983 10.3936C11.0879 10.68 10.6559 11.216 10.3551 11.4448C10.0831 11.6512 9.88952 11.7312 9.63512 11.7424C9.42552 11.7536 9.33912 11.7344 9.07032 11.624C6.96952 10.7568 5.29112 9.46403 3.95992 7.68803C3.26392 6.76003 2.73432 5.79843 2.37272 4.80003C2.16152 4.21763 2.15192 3.96483 2.32472 3.66723C2.39992 3.54083 2.71832 3.23043 2.95032 3.05603C3.33592 2.76803 3.51512 2.66243 3.65752 2.63203C3.75512 2.61123 3.92312 2.62723 4.03192 2.66723C4.08472 2.68483 4.16472 2.72643 4.21112 2.75683C4.49592 2.94563 5.28792 3.95843 5.54552 4.46403C5.69432 4.75363 5.74232 4.96643 5.69592 5.12483C5.64792 5.29603 5.56792 5.38563 5.21432 5.67043C5.07192 5.78563 4.93912 5.90403 4.91832 5.93603C4.86392 6.01443 4.82072 6.16643 4.82072 6.27363C4.82232 6.52323 4.98392 6.97763 5.19672 7.32643C5.36152 7.59683 5.65592 7.94403 5.94872 8.21123C6.29112 8.52483 6.59352 8.73923 6.93432 8.90883C7.37272 9.12803 7.64152 9.18243 7.83672 9.09123C7.88632 9.06883 7.93912 9.03843 7.95512 9.02563C7.96952 9.01283 8.08472 8.87203 8.21112 8.71523C8.45432 8.40963 8.50872 8.36003 8.67512 8.30403C8.88632 8.23203 9.10232 8.25123 9.31832 8.36163C9.48312 8.44643 9.84152 8.67043 10.0735 8.83203C10.3791 9.04643 11.0319 9.57923 11.1199 9.68483C11.2767 9.87843 11.3023 10.1232 11.1983 10.3936Z" fill="#C9C7C7"/>
</svg>
