<svg width="29" height="26" viewBox="0 0 29 26" fill="none" xmlns="http://www.w3.org/2000/svg">
<path opacity="0.6" d="M14.0574 4.82142L14.5 5.66318L14.9426 4.82142C16.3006 2.2384 18.4489 0.5 21.2969 0.5C25.4294 0.5 28.5 3.96914 28.5 8.2987C28.5 11.1285 27.1586 13.4659 24.7344 16.0217C23.0544 17.793 20.901 19.6237 18.3784 21.7683C17.235 22.7404 16.0157 23.777 14.7302 24.9017C14.5983 25.0171 14.4016 25.0171 14.2698 24.9017C12.9834 23.7762 11.7635 22.739 10.6197 21.7666C8.09572 19.6207 5.94231 17.7899 4.26276 16.019C1.83965 13.464 0.5 11.1282 0.5 8.2987C0.5 3.96982 3.57016 0.5 7.70312 0.5C10.5512 0.5 12.6995 2.23856 14.0574 4.82142ZM14.1721 23.8891L14.5 24.1739L14.8279 23.8891C15.8887 22.9676 16.9092 22.1 17.8789 21.2756C20.3276 19.1939 22.4526 17.3873 24.0857 15.6832C26.3738 13.2956 27.8008 11.0077 27.8008 8.2987C27.8008 4.30582 25.0393 1.19922 21.2969 1.19922C19.462 1.19922 18.0004 2.05277 16.9308 3.17725C15.8668 4.29588 15.1688 5.70247 14.8374 6.88865L14.8372 6.8891C14.742 7.23123 14.2569 7.22966 14.163 6.89007L14.1626 6.88865C13.8266 5.68614 13.1199 4.27936 12.0529 3.16479C10.9805 2.04473 9.52134 1.19922 7.70312 1.19922C3.96074 1.19922 1.19922 4.30582 1.19922 8.2987C1.19922 11.0062 2.62392 13.2921 4.91103 15.6792C6.54446 17.3841 8.67108 19.1923 11.1234 21.2774C12.0922 22.1011 13.1119 22.9681 14.1721 23.8891Z" fill="#999999" stroke="black"/>
</svg>
