<svg width="32" height="19" viewBox="0 0 32 19" fill="none" xmlns="http://www.w3.org/2000/svg">
<path d="M15.8441 0C10.0409 0 5.31943 2.84121 5.31943 6.33335C5.31943 7.38169 5.75499 8.42112 6.583 9.34306L15.2685 18.7959C15.3842 18.9219 15.6045 19 15.8441 19C16.0837 19 16.304 18.9219 16.4196 18.7959L25.1084 9.33995C25.9332 8.42112 26.3688 7.38165 26.3688 6.33331C26.3688 2.84121 21.6473 0 15.8441 0ZM15.8441 9.5C12.9425 9.5 10.5818 8.07942 10.5818 6.33335C10.5818 4.58728 12.9425 3.16669 15.8441 3.16669C18.7457 3.16669 21.1064 4.58728 21.1064 6.33335C21.1064 8.07942 18.7457 9.5 15.8441 9.5Z" fill="white"/>
</svg>
