<svg width="21" height="19" viewBox="0 0 21 19" fill="none" xmlns="http://www.w3.org/2000/svg">
<path d="M19.3263 12.4716C18.0579 12.4716 16.8125 12.2897 15.6323 11.932C15.0539 11.7511 14.343 11.9171 13.9901 12.2495L11.6606 13.8622C8.95908 12.5397 7.29499 11.0141 5.87261 8.55516L7.57937 6.47449C8.0228 6.06838 8.18185 5.47513 7.99129 4.9185C7.5996 3.83047 7.40063 2.68885 7.40063 1.52512C7.40068 0.684429 6.65491 0.000488281 5.73827 0.000488281H1.93359C1.01695 0.000488281 0.271179 0.684429 0.271179 1.52507C0.271179 11.161 8.81918 19.0002 19.3263 19.0002C20.2429 19.0002 20.9887 18.3163 20.9887 17.4756V13.9962C20.9886 13.1556 20.2429 12.4716 19.3263 12.4716Z" fill="#fff"/>
</svg>
