<svg width="40" height="40" viewBox="0 0 40 40" fill="none" xmlns="http://www.w3.org/2000/svg">
<g clip-path="url(#clip0_139_1194)">
<path d="M23.7054 20C23.7054 22.1143 22.0209 23.8281 19.9429 23.8281C17.8648 23.8281 16.1804 22.1143 16.1804 20C16.1804 17.8857 17.8648 16.1719 19.9429 16.1719C22.0209 16.1719 23.7054 17.8857 23.7054 20Z" fill="white"/>
<path d="M28.742 13.2269C28.5611 12.7282 28.2726 12.2769 27.8977 11.9064C27.5335 11.5249 27.0902 11.2313 26.5998 11.0473C26.2021 10.8901 25.6046 10.7031 24.5041 10.6521C23.3136 10.5969 22.9567 10.585 19.9428 10.585C16.9287 10.585 16.5718 10.5966 15.3816 10.6518C14.2811 10.7031 13.6833 10.8901 13.2859 11.0473C12.7955 11.2313 12.3519 11.5249 11.988 11.9064C11.6131 12.2769 11.3245 12.7279 11.1434 13.2269C10.9889 13.6315 10.805 14.2397 10.755 15.3594C10.7007 16.5704 10.689 16.9335 10.689 20.0002C10.689 23.0666 10.7007 23.4298 10.755 24.641C10.805 25.7607 10.9889 26.3686 11.1434 26.7733C11.3245 27.2723 11.6128 27.7233 11.9877 28.0938C12.3519 28.4753 12.7952 28.7689 13.2856 28.9529C13.6833 29.1103 14.2811 29.2974 15.3816 29.3484C16.5718 29.4036 16.9284 29.4152 19.9425 29.4152C22.957 29.4152 23.3139 29.4036 24.5038 29.3484C25.6043 29.2974 26.2021 29.1103 26.5998 28.9529C27.5842 28.5665 28.3623 27.7749 28.742 26.7733C28.8965 26.3686 29.0803 25.7607 29.1307 24.641C29.185 23.4298 29.1964 23.0666 29.1964 20.0002C29.1964 16.9335 29.185 16.5704 29.1307 15.3594C29.0806 14.2397 28.8968 13.6315 28.742 13.2269V13.2269ZM19.9428 25.8972C16.7415 25.8972 14.1464 23.2571 14.1464 19.9999C14.1464 16.7428 16.7415 14.1027 19.9428 14.1027C23.1438 14.1027 25.739 16.7428 25.739 19.9999C25.739 23.2571 23.1438 25.8972 19.9428 25.8972ZM25.9681 15.2477C25.2201 15.2477 24.6136 14.6307 24.6136 13.8696C24.6136 13.1085 25.2201 12.4914 25.9681 12.4914C26.7162 12.4914 27.3227 13.1085 27.3227 13.8696C27.3224 14.6307 26.7162 15.2477 25.9681 15.2477Z" fill="white"/>
<path d="M19.9428 0C9.08817 0 0.285706 8.95599 0.285706 20C0.285706 31.044 9.08817 40 19.9428 40C30.7975 40 39.6 31.044 39.6 20C39.6 8.95599 30.7975 0 19.9428 0ZM31.1623 24.7348C31.1077 25.9573 30.9166 26.792 30.6377 27.5226C30.0513 29.0652 28.8527 30.2847 27.3365 30.8813C26.6187 31.1652 25.7981 31.3593 24.5968 31.4151C23.3931 31.4709 23.0086 31.4844 19.9431 31.4844C16.8774 31.4844 16.4932 31.4709 15.2892 31.4151C14.0879 31.3593 13.2673 31.1652 12.5495 30.8813C11.7961 30.593 11.114 30.141 10.5501 29.5566C9.976 28.9832 9.53179 28.2889 9.24834 27.5226C8.96939 26.7923 8.77833 25.9573 8.72374 24.7351C8.66825 23.5101 8.65535 23.1189 8.65535 20C8.65535 16.8811 8.66825 16.4899 8.72344 15.2652C8.77803 14.0427 8.96879 13.208 9.24774 12.4774C9.53119 11.7111 9.9757 11.0168 10.5501 10.4434C11.1137 9.85901 11.7961 9.40704 12.5492 9.11865C13.2673 8.83484 14.0876 8.64075 15.2892 8.5849C16.4929 8.52905 16.8774 8.51562 19.9428 8.51562C23.0083 8.51562 23.3928 8.52905 24.5965 8.58521C25.7981 8.64075 26.6184 8.83484 27.3365 9.11835C28.0896 9.40674 28.772 9.85901 29.3359 10.4434C29.91 11.0172 30.3545 11.7111 30.6377 12.4774C30.9169 13.208 31.1077 14.0427 31.1626 15.2652C31.2175 16.4899 31.2303 16.8811 31.2303 20C31.2303 23.1189 31.2175 23.5101 31.1623 24.7348V24.7348Z" fill="white"/>
</g>
<defs>
<clipPath id="clip0_139_1194">
<rect width="39.3143" height="40" fill="white" transform="translate(0.285706)"/>
</clipPath>
</defs>
</svg>
