<svg width="41" height="40" viewBox="0 0 41 40" fill="none" xmlns="http://www.w3.org/2000/svg">
<g clip-path="url(#clip0_139_1198)">
<path d="M20.5086 0C9.38251 0 0.359985 8.95599 0.359985 20C0.359985 31.044 9.38251 40 20.5086 40C31.6346 40 40.6571 31.044 40.6571 20C40.6571 8.95599 31.6346 0 20.5086 0ZM29.7082 15.5939C29.7171 15.7907 29.7214 15.9885 29.7214 16.1871C29.7214 22.2531 25.0698 29.248 16.5631 29.2484C13.9514 29.2484 11.5211 28.4885 9.47443 27.1863C9.83629 27.2287 10.2046 27.2498 10.5775 27.2498C12.7444 27.2498 14.7385 26.5161 16.3215 25.2847C14.297 25.2475 12.5901 23.9203 12.001 22.0963C12.2829 22.15 12.5728 22.1793 12.8701 22.1793C13.2923 22.1793 13.7012 22.1228 14.0898 22.0175C11.9736 21.597 10.3795 19.7406 10.3795 17.5177C10.3795 17.4969 10.3795 17.4783 10.3802 17.4591C11.0033 17.803 11.716 18.0099 12.4748 18.0331C11.233 17.2107 10.4167 15.8047 10.4167 14.212C10.4167 13.371 10.6458 12.583 11.043 11.9046C13.3236 14.6823 16.7319 16.5091 20.5756 16.701C20.4963 16.3647 20.4554 16.0144 20.4554 15.6543C20.4554 13.1201 22.5266 11.0641 25.0805 11.0641C26.4108 11.0641 27.6123 11.6223 28.4563 12.5146C29.5099 12.3083 30.4992 11.9263 31.393 11.4005C31.0471 12.4719 30.3141 13.371 29.3592 13.9395C30.2948 13.8284 31.1864 13.5822 32.0149 13.2166C31.396 14.1373 30.6111 14.946 29.7082 15.5939Z" fill="white"/>
</g>
<defs>
<clipPath id="clip0_139_1198">
<rect width="40.2971" height="40" fill="white" transform="translate(0.359985)"/>
</clipPath>
</defs>
</svg>
