<svg width="40" height="40" viewBox="0 0 40 40" fill="none" xmlns="http://www.w3.org/2000/svg">
<g clip-path="url(#clip0_139_1200)">
<path d="M17.6258 23.7471L24.02 20.0001L17.6258 16.2532V23.7471Z" fill="white"/>
<path d="M20.0743 0C9.21958 0 0.417114 8.95599 0.417114 20C0.417114 31.044 9.21958 40 20.0743 40C30.9289 40 39.7314 31.044 39.7314 20C39.7314 8.95599 30.9289 0 20.0743 0ZM32.357 20.0204C32.357 20.0204 32.357 24.0765 31.8513 26.0324C31.5678 27.103 30.7382 27.9471 29.686 28.2352C27.7636 28.75 20.0743 28.75 20.0743 28.75C20.0743 28.75 12.405 28.75 10.4625 28.2147C9.41034 27.9266 8.5807 27.0822 8.29725 26.0117C7.79124 24.0765 7.79124 20 7.79124 20C7.79124 20 7.79124 15.9442 8.29725 13.9883C8.5804 12.9178 9.43044 12.0529 10.4625 11.7648C12.3849 11.25 20.0743 11.25 20.0743 11.25C20.0743 11.25 27.7636 11.25 29.686 11.7853C30.7382 12.0734 31.5678 12.9178 31.8513 13.9883C32.3774 15.9442 32.357 20.0204 32.357 20.0204V20.0204Z" fill="white"/>
</g>
<defs>
<clipPath id="clip0_139_1200">
<rect width="39.3143" height="40" fill="white" transform="translate(0.417114)"/>
</clipPath>
</defs>
</svg>
