<svg width="40" height="40" viewBox="0 0 40 40" fill="none" xmlns="http://www.w3.org/2000/svg">
<g clip-path="url(#clip0_139_1203)">
<path d="M39.8057 20C39.8057 8.95312 31.0061 0 20.1486 0C9.2911 0 0.491455 8.95312 0.491455 20C0.491455 31.0469 9.2911 40 20.1486 40C20.2638 40 20.379 40 20.4941 39.9922V24.4297H16.2709V19.4219H20.4941V15.7344C20.4941 11.4609 23.0588 9.13281 26.8059 9.13281C28.6027 9.13281 30.1461 9.26562 30.5915 9.32812V13.7969H28.0115C25.9766 13.7969 25.5773 14.7812 25.5773 16.2266V19.4141H30.4532L29.8159 24.4219H25.5773V39.2266C33.7934 36.8281 39.8057 29.1328 39.8057 20Z" fill="white"/>
</g>
<defs>
<clipPath id="clip0_139_1203">
<rect width="39.3143" height="40" fill="white" transform="translate(0.491455)"/>
</clipPath>
</defs>
</svg>
